# Made in Blockbench 4.6.4
mtllib Restraunt Wall Doorway.mtl

o upper
v 1 3.5 0
v 1 3.5 -0.125
v 1 3.25 0
v 1 3.25 -0.125
v 0 3.5 -0.125
v 0 3.5 0
v 0 3.25 -0.125
v 0 3.25 0
vt 0 1
vt 1 1
vt 1 0.75
vt 0 0.75
vt 0.875 1
vt 1 1
vt 1 0.75
vt 0.875 0.75
vt 0 0.875
vt 1 0.875
vt 1 0.75
vt 0 0.75
vn 0 0 -1
vn 1 0 0
vn 0 -1 0
usemtl m_d421ff16-de5e-92e0-5055-526d18734a5f
f 4/4/1 7/3/1 5/2/1 2/1/1
f 3/8/2 4/7/2 2/6/2 1/5/2
f 7/12/3 4/11/3 3/10/3 8/9/3
o upper
v 1 3.75 0
v 1 3.75 -0.125
v 1 3.5 0
v 1 3.5 -0.125
v 0 3.75 -0.125
v 0 3.75 0
v 0 3.5 -0.125
v 0 3.5 0
vt 0 1
vt 1 1
vt 1 0.75
vt 0 0.75
vt 0.875 1
vt 1 1
vt 1 0.75
vt 0.875 0.75
vn 0 0 -1
vn 1 0 0
usemtl m_d421ff16-de5e-92e0-5055-526d18734a5f
f 12/16/4 15/15/4 13/14/4 10/13/4
f 11/20/5 12/19/5 10/18/5 9/17/5
o upper
v 1 4 0
v 1 4 -0.125
v 1 3.75 0
v 1 3.75 -0.125
v 0 4 -0.125
v 0 4 0
v 0 3.75 -0.125
v 0 3.75 0
vt 0 1
vt 1 1
vt 1 0.75
vt 0 0.75
vt 0.875 1
vt 1 1
vt 1 0.75
vt 0.875 0.75
vn 0 0 -1
vn 1 0 0
usemtl m_d421ff16-de5e-92e0-5055-526d18734a5f
f 20/24/6 23/23/6 21/22/6 18/21/6
f 19/28/7 20/27/7 18/26/7 17/25/7
o upper
v 1 4.749999999999999 0
v 1 4.749999999999999 -0.125
v 1 4.499999999999999 0
v 1 4.499999999999999 -0.125
v 0 4.749999999999999 -0.125
v 0 4.749999999999999 0
v 0 4.499999999999999 -0.125
v 0 4.499999999999999 0
vt 0 1
vt 1 1
vt 1 0.75
vt 0 0.75
vt 0.875 1
vt 1 1
vt 1 0.75
vt 0.875 0.75
vn 0 0 -1
vn 1 0 0
usemtl m_d421ff16-de5e-92e0-5055-526d18734a5f
f 28/32/8 31/31/8 29/30/8 26/29/8
f 27/36/9 28/35/9 26/34/9 25/33/9
o upper
v 1 5 0
v 1 5 -0.125
v 1 4.749999999999999 0
v 1 4.749999999999999 -0.125
v 0 5 -0.125
v 0 5 0
v 0 4.749999999999999 -0.125
v 0 4.749999999999999 0
vt 0 1
vt 1 1
vt 1 0.75
vt 0 0.75
vt 0.875 1
vt 1 1
vt 1 0.75
vt 0.875 0.75
vn 0 0 -1
vn 1 0 0
usemtl m_d421ff16-de5e-92e0-5055-526d18734a5f
f 36/40/10 39/39/10 37/38/10 34/37/10
f 35/44/11 36/43/11 34/42/11 33/41/11
o upper
v 1 4.249999999999999 0
v 1 4.249999999999999 -0.125
v 1 3.999999999999999 0
v 1 3.999999999999999 -0.125
v 0 4.249999999999999 -0.125
v 0 4.249999999999999 0
v 0 3.999999999999999 -0.125
v 0 3.999999999999999 0
vt 0 1
vt 1 1
vt 1 0.75
vt 0 0.75
vt 0.875 1
vt 1 1
vt 1 0.75
vt 0.875 0.75
vn 0 0 -1
vn 1 0 0
usemtl m_d421ff16-de5e-92e0-5055-526d18734a5f
f 44/48/12 47/47/12 45/46/12 42/45/12
f 43/52/13 44/51/13 42/50/13 41/49/13
o upper
v 1 4.499999999999999 0
v 1 4.499999999999999 -0.125
v 1 4.249999999999999 0
v 1 4.249999999999999 -0.125
v 0 4.499999999999999 -0.125
v 0 4.499999999999999 0
v 0 4.249999999999999 -0.125
v 0 4.249999999999999 0
vt 0 1
vt 1 1
vt 1 0.75
vt 0 0.75
vt 0.875 1
vt 1 1
vt 1 0.75
vt 0.875 0.75
vn 0 0 -1
vn 1 0 0
usemtl m_d421ff16-de5e-92e0-5055-526d18734a5f
f 52/56/14 55/55/14 53/54/14 50/53/14
f 51/60/15 52/59/15 50/58/15 49/57/15
o upper
v 0 3.5 0
v 0 3.5 -0.125
v 0 3.25 0
v 0 3.25 -0.125
v -1 3.5 -0.125
v -1 3.5 0
v -1 3.25 -0.125
v -1 3.25 0
vt 0 1
vt 1 1
vt 1 0.75
vt 0 0.75
vt 0 1
vt 0.125 1
vt 0.125 0.75
vt 0 0.75
vt 0 0.875
vt 1 0.875
vt 1 0.75
vt 0 0.75
vn 0 0 -1
vn -1 0 0
vn 0 -1 0
usemtl m_d421ff16-de5e-92e0-5055-526d18734a5f
f 60/64/16 63/63/16 61/62/16 58/61/16
f 63/68/17 64/67/17 62/66/17 61/65/17
f 63/72/18 60/71/18 59/70/18 64/69/18
o upper
v 0 3.75 0
v 0 3.75 -0.125
v 0 3.5 0
v 0 3.5 -0.125
v -1 3.75 -0.125
v -1 3.75 0
v -1 3.5 -0.125
v -1 3.5 0
vt 0 1
vt 1 1
vt 1 0.75
vt 0 0.75
vt 0 1
vt 0.125 1
vt 0.125 0.75
vt 0 0.75
vn 0 0 -1
vn -1 0 0
usemtl m_d421ff16-de5e-92e0-5055-526d18734a5f
f 68/76/19 71/75/19 69/74/19 66/73/19
f 71/80/20 72/79/20 70/78/20 69/77/20
o upper
v 0 4 0
v 0 4 -0.125
v 0 3.75 0
v 0 3.75 -0.125
v -1 4 -0.125
v -1 4 0
v -1 3.75 -0.125
v -1 3.75 0
vt 0 1
vt 1 1
vt 1 0.75
vt 0 0.75
vt 0 1
vt 0.125 1
vt 0.125 0.75
vt 0 0.75
vn 0 0 -1
vn -1 0 0
usemtl m_d421ff16-de5e-92e0-5055-526d18734a5f
f 76/84/21 79/83/21 77/82/21 74/81/21
f 79/88/22 80/87/22 78/86/22 77/85/22
o upper
v 0 4.749999999999999 0
v 0 4.749999999999999 -0.125
v 0 4.499999999999999 0
v 0 4.499999999999999 -0.125
v -1 4.749999999999999 -0.125
v -1 4.749999999999999 0
v -1 4.499999999999999 -0.125
v -1 4.499999999999999 0
vt 0 1
vt 1 1
vt 1 0.75
vt 0 0.75
vt 0 1
vt 0.125 1
vt 0.125 0.75
vt 0 0.75
vn 0 0 -1
vn -1 0 0
usemtl m_d421ff16-de5e-92e0-5055-526d18734a5f
f 84/92/23 87/91/23 85/90/23 82/89/23
f 87/96/24 88/95/24 86/94/24 85/93/24
o upper
v 0 5 0
v 0 5 -0.125
v 0 4.749999999999999 0
v 0 4.749999999999999 -0.125
v -1 5 -0.125
v -1 5 0
v -1 4.749999999999999 -0.125
v -1 4.749999999999999 0
vt 0 1
vt 1 1
vt 1 0.75
vt 0 0.75
vt 0 1
vt 0.125 1
vt 0.125 0.75
vt 0 0.75
vn 0 0 -1
vn -1 0 0
usemtl m_d421ff16-de5e-92e0-5055-526d18734a5f
f 92/100/25 95/99/25 93/98/25 90/97/25
f 95/104/26 96/103/26 94/102/26 93/101/26
o upper
v 0 4.249999999999999 0
v 0 4.249999999999999 -0.125
v 0 3.999999999999999 0
v 0 3.999999999999999 -0.125
v -1 4.249999999999999 -0.125
v -1 4.249999999999999 0
v -1 3.999999999999999 -0.125
v -1 3.999999999999999 0
vt 0 1
vt 1 1
vt 1 0.75
vt 0 0.75
vt 0 1
vt 0.125 1
vt 0.125 0.75
vt 0 0.75
vn 0 0 -1
vn -1 0 0
usemtl m_d421ff16-de5e-92e0-5055-526d18734a5f
f 100/108/27 103/107/27 101/106/27 98/105/27
f 103/112/28 104/111/28 102/110/28 101/109/28
o upper
v 0 4.499999999999999 0
v 0 4.499999999999999 -0.125
v 0 4.249999999999999 0
v 0 4.249999999999999 -0.125
v -1 4.499999999999999 -0.125
v -1 4.499999999999999 0
v -1 4.249999999999999 -0.125
v -1 4.249999999999999 0
vt 0 1
vt 1 1
vt 1 0.75
vt 0 0.75
vt 0 1
vt 0.125 1
vt 0.125 0.75
vt 0 0.75
vn 0 0 -1
vn -1 0 0
usemtl m_d421ff16-de5e-92e0-5055-526d18734a5f
f 108/116/29 111/115/29 109/114/29 106/113/29
f 111/120/30 112/119/30 110/118/30 109/117/30
o upper
v 1 5.25 0
v 1 5.25 -0.125
v 1 5 0
v 1 5 -0.125
v 0 5.25 -0.125
v 0 5.25 0
v 0 5 -0.125
v 0 5 0
vt 0 1
vt 1 1
vt 1 0.75
vt 0 0.75
vt 0.875 1
vt 1 1
vt 1 0.75
vt 0.875 0.75
vn 0 0 -1
vn 1 0 0
usemtl m_d421ff16-de5e-92e0-5055-526d18734a5f
f 116/124/31 119/123/31 117/122/31 114/121/31
f 115/128/32 116/127/32 114/126/32 113/125/32
o upper
v 1 5.5 0
v 1 5.5 -0.125
v 1 5.25 0
v 1 5.25 -0.125
v 0 5.5 -0.125
v 0 5.5 0
v 0 5.25 -0.125
v 0 5.25 0
vt 0 1
vt 1 1
vt 1 0.75
vt 0 0.75
vt 0.875 1
vt 1 1
vt 1 0.75
vt 0.875 0.75
vn 0 0 -1
vn 1 0 0
usemtl m_d421ff16-de5e-92e0-5055-526d18734a5f
f 124/132/33 127/131/33 125/130/33 122/129/33
f 123/136/34 124/135/34 122/134/34 121/133/34
o upper
v 1 5.75 0
v 1 5.75 -0.125
v 1 5.5 0
v 1 5.5 -0.125
v 0 5.75 -0.125
v 0 5.75 0
v 0 5.5 -0.125
v 0 5.5 0
vt 0 1
vt 1 1
vt 1 0.75
vt 0 0.75
vt 0.875 1
vt 1 1
vt 1 0.75
vt 0.875 0.75
vn 0 0 -1
vn 1 0 0
usemtl m_d421ff16-de5e-92e0-5055-526d18734a5f
f 132/140/35 135/139/35 133/138/35 130/137/35
f 131/144/36 132/143/36 130/142/36 129/141/36
o upper
v 1 6.499999999999999 0
v 1 6.499999999999999 -0.125
v 1 6.249999999999999 0
v 1 6.249999999999999 -0.125
v 0 6.499999999999999 -0.125
v 0 6.499999999999999 0
v 0 6.249999999999999 -0.125
v 0 6.249999999999999 0
vt 0 1
vt 1 1
vt 1 0.75
vt 0 0.75
vt 0.875 1
vt 1 1
vt 1 0.75
vt 0.875 0.75
vn 0 0 -1
vn 1 0 0
usemtl m_d421ff16-de5e-92e0-5055-526d18734a5f
f 140/148/37 143/147/37 141/146/37 138/145/37
f 139/152/38 140/151/38 138/150/38 137/149/38
o upper
v 1 6.75 0
v 1 6.75 -0.125
v 1 6.499999999999999 0
v 1 6.499999999999999 -0.125
v 0 6.75 -0.125
v 0 6.75 0
v 0 6.499999999999999 -0.125
v 0 6.499999999999999 0
vt 0 1
vt 1 1
vt 1 0.75
vt 0 0.75
vt 0.875 1
vt 1 1
vt 1 0.75
vt 0.875 0.75
vn 0 0 -1
vn 1 0 0
usemtl m_d421ff16-de5e-92e0-5055-526d18734a5f
f 148/156/39 151/155/39 149/154/39 146/153/39
f 147/160/40 148/159/40 146/158/40 145/157/40
o upper
v 1 5.999999999999999 0
v 1 5.999999999999999 -0.125
v 1 5.749999999999999 0
v 1 5.749999999999999 -0.125
v 0 5.999999999999999 -0.125
v 0 5.999999999999999 0
v 0 5.749999999999999 -0.125
v 0 5.749999999999999 0
vt 0 1
vt 1 1
vt 1 0.75
vt 0 0.75
vt 0.875 1
vt 1 1
vt 1 0.75
vt 0.875 0.75
vn 0 0 -1
vn 1 0 0
usemtl m_d421ff16-de5e-92e0-5055-526d18734a5f
f 156/164/41 159/163/41 157/162/41 154/161/41
f 155/168/42 156/167/42 154/166/42 153/165/42
o upper
v 1 6.249999999999999 0
v 1 6.249999999999999 -0.125
v 1 5.999999999999999 0
v 1 5.999999999999999 -0.125
v 0 6.249999999999999 -0.125
v 0 6.249999999999999 0
v 0 5.999999999999999 -0.125
v 0 5.999999999999999 0
vt 0 1
vt 1 1
vt 1 0.75
vt 0 0.75
vt 0.875 1
vt 1 1
vt 1 0.75
vt 0.875 0.75
vn 0 0 -1
vn 1 0 0
usemtl m_d421ff16-de5e-92e0-5055-526d18734a5f
f 164/172/43 167/171/43 165/170/43 162/169/43
f 163/176/44 164/175/44 162/174/44 161/173/44
o upper
v 0 5.25 0
v 0 5.25 -0.125
v 0 5 0
v 0 5 -0.125
v -1 5.25 -0.125
v -1 5.25 0
v -1 5 -0.125
v -1 5 0
vt 0 1
vt 1 1
vt 1 0.75
vt 0 0.75
vt 0 1
vt 0.125 1
vt 0.125 0.75
vt 0 0.75
vn 0 0 -1
vn -1 0 0
usemtl m_d421ff16-de5e-92e0-5055-526d18734a5f
f 172/180/45 175/179/45 173/178/45 170/177/45
f 175/184/46 176/183/46 174/182/46 173/181/46
o upper
v 0 5.5 0
v 0 5.5 -0.125
v 0 5.25 0
v 0 5.25 -0.125
v -1 5.5 -0.125
v -1 5.5 0
v -1 5.25 -0.125
v -1 5.25 0
vt 0 1
vt 1 1
vt 1 0.75
vt 0 0.75
vt 0 1
vt 0.125 1
vt 0.125 0.75
vt 0 0.75
vn 0 0 -1
vn -1 0 0
usemtl m_d421ff16-de5e-92e0-5055-526d18734a5f
f 180/188/47 183/187/47 181/186/47 178/185/47
f 183/192/48 184/191/48 182/190/48 181/189/48
o upper
v 0 5.75 0
v 0 5.75 -0.125
v 0 5.5 0
v 0 5.5 -0.125
v -1 5.75 -0.125
v -1 5.75 0
v -1 5.5 -0.125
v -1 5.5 0
vt 0 1
vt 1 1
vt 1 0.75
vt 0 0.75
vt 0 1
vt 0.125 1
vt 0.125 0.75
vt 0 0.75
vn 0 0 -1
vn -1 0 0
usemtl m_d421ff16-de5e-92e0-5055-526d18734a5f
f 188/196/49 191/195/49 189/194/49 186/193/49
f 191/200/50 192/199/50 190/198/50 189/197/50
o upper
v 0 6.499999999999999 0
v 0 6.499999999999999 -0.125
v 0 6.249999999999999 0
v 0 6.249999999999999 -0.125
v -1 6.499999999999999 -0.125
v -1 6.499999999999999 0
v -1 6.249999999999999 -0.125
v -1 6.249999999999999 0
vt 0 1
vt 1 1
vt 1 0.75
vt 0 0.75
vt 0 1
vt 0.125 1
vt 0.125 0.75
vt 0 0.75
vn 0 0 -1
vn -1 0 0
usemtl m_d421ff16-de5e-92e0-5055-526d18734a5f
f 196/204/51 199/203/51 197/202/51 194/201/51
f 199/208/52 200/207/52 198/206/52 197/205/52
o upper
v 0 6.75 0
v 0 6.75 -0.125
v 0 6.499999999999999 0
v 0 6.499999999999999 -0.125
v -1 6.75 -0.125
v -1 6.75 0
v -1 6.499999999999999 -0.125
v -1 6.499999999999999 0
vt 0 1
vt 1 1
vt 1 0.75
vt 0 0.75
vt 0 1
vt 0.125 1
vt 0.125 0.75
vt 0 0.75
vn 0 0 -1
vn -1 0 0
usemtl m_d421ff16-de5e-92e0-5055-526d18734a5f
f 204/212/53 207/211/53 205/210/53 202/209/53
f 207/216/54 208/215/54 206/214/54 205/213/54
o upper
v 0 5.999999999999999 0
v 0 5.999999999999999 -0.125
v 0 5.749999999999999 0
v 0 5.749999999999999 -0.125
v -1 5.999999999999999 -0.125
v -1 5.999999999999999 0
v -1 5.749999999999999 -0.125
v -1 5.749999999999999 0
vt 0 1
vt 1 1
vt 1 0.75
vt 0 0.75
vt 0 1
vt 0.125 1
vt 0.125 0.75
vt 0 0.75
vn 0 0 -1
vn -1 0 0
usemtl m_d421ff16-de5e-92e0-5055-526d18734a5f
f 212/220/55 215/219/55 213/218/55 210/217/55
f 215/224/56 216/223/56 214/222/56 213/221/56
o upper
v 0 6.249999999999999 0
v 0 6.249999999999999 -0.125
v 0 5.999999999999999 0
v 0 5.999999999999999 -0.125
v -1 6.249999999999999 -0.125
v -1 6.249999999999999 0
v -1 5.999999999999999 -0.125
v -1 5.999999999999999 0
vt 0 1
vt 1 1
vt 1 0.75
vt 0 0.75
vt 0 1
vt 0.125 1
vt 0.125 0.75
vt 0 0.75
vn 0 0 -1
vn -1 0 0
usemtl m_d421ff16-de5e-92e0-5055-526d18734a5f
f 220/228/57 223/227/57 221/226/57 218/225/57
f 223/232/58 224/231/58 222/230/58 221/229/58