# Made in Blockbench 4.6.4
mtllib Table.mtl

o leg
v -0.375 1 0.5
v -0.375 1 0.375
v -0.375 0 0.5
v -0.375 0 0.375
v -0.5 1 0.375
v -0.5 1 0.5
v -0.5 0 0.375
v -0.5 0 0.5
vt 0.5625 1
vt 0.6875 1
vt 0.6875 0
vt 0.5625 0
vt 0.5625 1
vt 0.6875 1
vt 0.6875 0
vt 0.5625 0
vt 0.5625 1
vt 0.6875 1
vt 0.6875 0
vt 0.5625 0
vt 0.5625 1
vt 0.6875 1
vt 0.6875 0
vt 0.5625 0
vt 0.375 0.625
vt 0.5 0.625
vt 0.5 0.5
vt 0.375 0.5
vt 0.375 0.625
vt 0.5 0.625
vt 0.5 0.5
vt 0.375 0.5
vn 0 0 -1
vn 1 0 0
vn 0 0 1
vn -1 0 0
vn 0 1 0
vn 0 -1 0
usemtl m_38c0d9e3-ef7e-9f65-0bcf-b2c0ce37f559
f 4/4/1 7/3/1 5/2/1 2/1/1
f 3/8/2 4/7/2 2/6/2 1/5/2
f 8/12/3 3/11/3 1/10/3 6/9/3
f 7/16/4 8/15/4 6/14/4 5/13/4
f 6/20/5 1/19/5 2/18/5 5/17/5
f 7/24/6 4/23/6 3/22/6 8/21/6
o leg
v 0.5 1 0.5
v 0.5 1 0.375
v 0.5 0 0.5
v 0.5 0 0.375
v 0.375 1 0.375
v 0.375 1 0.5
v 0.375 0 0.375
v 0.375 0 0.5
vt 0.5625 1
vt 0.6875 1
vt 0.6875 0
vt 0.5625 0
vt 0.5625 1
vt 0.6875 1
vt 0.6875 0
vt 0.5625 0
vt 0.5625 1
vt 0.6875 1
vt 0.6875 0
vt 0.5625 0
vt 0.5625 1
vt 0.6875 1
vt 0.6875 0
vt 0.5625 0
vt 0.375 0.625
vt 0.5 0.625
vt 0.5 0.5
vt 0.375 0.5
vt 0.375 0.625
vt 0.5 0.625
vt 0.5 0.5
vt 0.375 0.5
vn 0 0 -1
vn 1 0 0
vn 0 0 1
vn -1 0 0
vn 0 1 0
vn 0 -1 0
usemtl m_38c0d9e3-ef7e-9f65-0bcf-b2c0ce37f559
f 12/28/7 15/27/7 13/26/7 10/25/7
f 11/32/8 12/31/8 10/30/8 9/29/8
f 16/36/9 11/35/9 9/34/9 14/33/9
f 15/40/10 16/39/10 14/38/10 13/37/10
f 14/44/11 9/43/11 10/42/11 13/41/11
f 15/48/12 12/47/12 11/46/12 16/45/12
o leg
v 0.5 1 -0.375
v 0.5 1 -0.5
v 0.5 0 -0.375
v 0.5 0 -0.5
v 0.375 1 -0.5
v 0.375 1 -0.375
v 0.375 0 -0.5
v 0.375 0 -0.375
vt 0.5625 1
vt 0.6875 1
vt 0.6875 0
vt 0.5625 0
vt 0.5625 1
vt 0.6875 1
vt 0.6875 0
vt 0.5625 0
vt 0.5625 1
vt 0.6875 1
vt 0.6875 0
vt 0.5625 0
vt 0.5625 1
vt 0.6875 1
vt 0.6875 0
vt 0.5625 0
vt 0.375 0.625
vt 0.5 0.625
vt 0.5 0.5
vt 0.375 0.5
vt 0.375 0.625
vt 0.5 0.625
vt 0.5 0.5
vt 0.375 0.5
vn 0 0 -1
vn 1 0 0
vn 0 0 1
vn -1 0 0
vn 0 1 0
vn 0 -1 0
usemtl m_38c0d9e3-ef7e-9f65-0bcf-b2c0ce37f559
f 20/52/13 23/51/13 21/50/13 18/49/13
f 19/56/14 20/55/14 18/54/14 17/53/14
f 24/60/15 19/59/15 17/58/15 22/57/15
f 23/64/16 24/63/16 22/62/16 21/61/16
f 22/68/17 17/67/17 18/66/17 21/65/17
f 23/72/18 20/71/18 19/70/18 24/69/18
o leg
v -0.375 1 -0.375
v -0.375 1 -0.5
v -0.375 0 -0.375
v -0.375 0 -0.5
v -0.5 1 -0.5
v -0.5 1 -0.375
v -0.5 0 -0.5
v -0.5 0 -0.375
vt 0.5625 1
vt 0.6875 1
vt 0.6875 0
vt 0.5625 0
vt 0.5625 1
vt 0.6875 1
vt 0.6875 0
vt 0.5625 0
vt 0.5625 1
vt 0.6875 1
vt 0.6875 0
vt 0.5625 0
vt 0.5625 1
vt 0.6875 1
vt 0.6875 0
vt 0.5625 0
vt 0.375 0.625
vt 0.5 0.625
vt 0.5 0.5
vt 0.375 0.5
vt 0.375 0.625
vt 0.5 0.625
vt 0.5 0.5
vt 0.375 0.5
vn 0 0 -1
vn 1 0 0
vn 0 0 1
vn -1 0 0
vn 0 1 0
vn 0 -1 0
usemtl m_38c0d9e3-ef7e-9f65-0bcf-b2c0ce37f559
f 28/76/19 31/75/19 29/74/19 26/73/19
f 27/80/20 28/79/20 26/78/20 25/77/20
f 32/84/21 27/83/21 25/82/21 30/81/21
f 31/88/22 32/87/22 30/86/22 29/85/22
f 30/92/23 25/91/23 26/90/23 29/89/23
f 31/96/24 28/95/24 27/94/24 32/93/24
o cube
v 0.5625 1.125 0.5625
v 0.5625 1.125 0
v 0.5625 1 0.5625
v 0.5625 1 0
v 0 1.125 0
v 0 1.125 0.5625
v 0 1 0
v 0 1 0.5625
vt 0 0.4375
vt 0.5625 0.4375
vt 0.5625 0.3125
vt 0 0.3125
vt 0 0.4375
vt 0.5625 0.4375
vt 0.5625 0.3125
vt 0 0.3125
vt 0 1
vt 0.5625 1
vt 0.5625 0.4375
vt 0 0.4375
vt 0 0.4375
vt 0.5625 0.4375
vt 0.5625 1
vt 0 1
vn 1 0 0
vn 0 0 1
vn 0 1 0
vn 0 -1 0
usemtl m_38c0d9e3-ef7e-9f65-0bcf-b2c0ce37f559
f 35/100/25 36/99/25 34/98/25 33/97/25
f 40/104/26 35/103/26 33/102/26 38/101/26
f 38/108/27 33/107/27 34/106/27 37/105/27
f 39/112/28 36/111/28 35/110/28 40/109/28
o cube
v 0.5625 1.125 -0.5624999999999999
v 1.1102230246251565e-16 1.125 -0.5625
v 0.5625 1 -0.5624999999999999
v 1.1102230246251565e-16 1 -0.5625
v 0 1.125 0
v 0.5625 1.125 1.1102230246251565e-16
v 0 1 0
v 0.5625 1 1.1102230246251565e-16
vt 0 0.4375
vt 0.5625 0.4375
vt 0.5625 0.3125
vt 0 0.3125
vt 0 0.4375
vt 0.5625 0.4375
vt 0.5625 0.3125
vt 0 0.3125
vt 0 1
vt 0.5625 1
vt 0.5625 0.4375
vt 0 0.4375
vt 0 0.4375
vt 0.5625 0.4375
vt 0.5625 1
vt 0 1
vn 2.220446049250313e-16 0 -1
vn 1 0 2.220446049250313e-16
vn 0 1 0
vn 0 -1 0
usemtl m_38c0d9e3-ef7e-9f65-0bcf-b2c0ce37f559
f 43/116/29 44/115/29 42/114/29 41/113/29
f 48/120/30 43/119/30 41/118/30 46/117/30
f 46/124/31 41/123/31 42/122/31 45/121/31
f 47/128/32 44/127/32 43/126/32 48/125/32
o cube
v -0.5625000000000001 1.125 -0.5624999999999999
v -0.5625 1.125 1.1102230246251565e-16
v -0.5625000000000001 1 -0.5624999999999999
v -0.5625 1 1.1102230246251565e-16
v 0 1.125 0
v -5.551115123125783e-17 1.125 -0.5625
v 0 1 0
v -5.551115123125783e-17 1 -0.5625
vt 0 0.4375
vt 0.5625 0.4375
vt 0.5625 0.3125
vt 0 0.3125
vt 0 0.4375
vt 0.5625 0.4375
vt 0.5625 0.3125
vt 0 0.3125
vt 0 1
vt 0.5625 1
vt 0.5625 0.4375
vt 0 0.4375
vt 0 0.4375
vt 0.5625 0.4375
vt 0.5625 1
vt 0 1
vn -1 0 1.2246467991473532e-16
vn -1.2246467991473532e-16 0 -1
vn 0 1 0
vn 0 -1 0
usemtl m_38c0d9e3-ef7e-9f65-0bcf-b2c0ce37f559
f 51/132/33 52/131/33 50/130/33 49/129/33
f 56/136/34 51/135/34 49/134/34 54/133/34
f 54/140/35 49/139/35 50/138/35 53/137/35
f 55/144/36 52/143/36 51/142/36 56/141/36
o cube
v -0.5624999999999999 1.125 0.5625
v 1.1102230246251565e-16 1.125 0.5625
v -0.5624999999999999 1 0.5625
v 1.1102230246251565e-16 1 0.5625
v 0 1.125 0
v -0.5625 1.125 1.1102230246251565e-16
v 0 1 0
v -0.5625 1 1.1102230246251565e-16
vt 0 0.4375
vt 0.5625 0.4375
vt 0.5625 0.3125
vt 0 0.3125
vt 0 0.4375
vt 0.5625 0.4375
vt 0.5625 0.3125
vt 0 0.3125
vt 0 1
vt 0.5625 1
vt 0.5625 0.4375
vt 0 0.4375
vt 0 0.4375
vt 0.5625 0.4375
vt 0.5625 1
vt 0 1
vn 2.220446049250313e-16 0 1
vn -1 0 2.220446049250313e-16
vn 0 1 0
vn 0 -1 0
usemtl m_38c0d9e3-ef7e-9f65-0bcf-b2c0ce37f559
f 59/148/37 60/147/37 58/146/37 57/145/37
f 64/152/38 59/151/38 57/150/38 62/149/38
f 62/156/39 57/155/39 58/154/39 61/153/39
f 63/160/40 60/159/40 59/158/40 64/157/40